<mxfile host="65bd71144e">
    <diagram name="Sequence Diagram - Sprint 2 - Web Scraping et Data Processing" id="sprint2-sequence-diagram">
        <mxGraphModel dx="1422" dy="772" grid="1" gridSize="10" guides="1" tooltips="1" connect="1" arrows="1" fold="1" page="1" pageScale="1" pageWidth="1600" pageHeight="1200" math="0" shadow="0">
            <root>
                <mxCell id="0"/>
                <mxCell id="1" parent="0"/>
                
                <!-- Title -->
                <mxCell id="Title" value="Diagramme de Séquence - Sprint 2&#xa;Module de Web Scraping et Traitement des Données Hespress" style="text;html=1;strokeColor=none;fillColor=none;align=center;verticalAlign=middle;whiteSpace=wrap;rounded=0;fontStyle=1;fontSize=16;" vertex="1" parent="1">
                    <mxGeometry x="400" y="20" width="800" height="40" as="geometry"/>
                </mxCell>
                
                <!-- Actors and Systems -->
                <mxCell id="Scheduler" value="Cron&#xa;Scheduler" style="shape=umlActor;verticalLabelPosition=bottom;verticalAlign=top;html=1;outlineConnect=0;fillColor=#dae8fc;strokeColor=#6c8ebf;" vertex="1" parent="1">
                    <mxGeometry x="80" y="80" width="30" height="60" as="geometry"/>
                </mxCell>
                
                <mxCell id="FastAPI" value="FastAPI&#xa;Backend" style="rounded=1;whiteSpace=wrap;html=1;fillColor=#fff2cc;strokeColor=#d6b656;" vertex="1" parent="1">
                    <mxGeometry x="200" y="80" width="80" height="60" as="geometry"/>
                </mxCell>
                
                <mxCell id="Selenium" value="Selenium&#xa;Scraper" style="rounded=1;whiteSpace=wrap;html=1;fillColor=#f8cecc;strokeColor=#b85450;" vertex="1" parent="1">
                    <mxGeometry x="360" y="80" width="80" height="60" as="geometry"/>
                </mxCell>
                
                <mxCell id="Hespress" value="Site Web&#xa;Hespress" style="rounded=1;whiteSpace=wrap;html=1;fillColor=#e1d5e7;strokeColor=#9673a6;" vertex="1" parent="1">
                    <mxGeometry x="520" y="80" width="80" height="60" as="geometry"/>
                </mxCell>
                
                <mxCell id="Pandas" value="Pandas&#xa;Data Processor" style="rounded=1;whiteSpace=wrap;html=1;fillColor=#d5e8d4;strokeColor=#82b366;" vertex="1" parent="1">
                    <mxGeometry x="680" y="80" width="80" height="60" as="geometry"/>
                </mxCell>
                
                <mxCell id="PostgreSQL" value="PostgreSQL&#xa;Database" style="rounded=1;whiteSpace=wrap;html=1;fillColor=#f5f5f5;strokeColor=#666666;" vertex="1" parent="1">
                    <mxGeometry x="840" y="80" width="80" height="60" as="geometry"/>
                </mxCell>
                
                <mxCell id="Redis" value="Redis&#xa;Cache" style="rounded=1;whiteSpace=wrap;html=1;fillColor=#ffe6cc;strokeColor=#d79b00;" vertex="1" parent="1">
                    <mxGeometry x="1000" y="80" width="80" height="60" as="geometry"/>
                </mxCell>
                
                <mxCell id="Gateway" value="Spring&#xa;API Gateway" style="rounded=1;whiteSpace=wrap;html=1;fillColor=#e6f3ff;strokeColor=#4d9ddb;" vertex="1" parent="1">
                    <mxGeometry x="1160" y="80" width="80" height="60" as="geometry"/>
                </mxCell>
                
                <!-- Lifelines -->
                <mxCell id="SchedulerLifeline" value="" style="endArrow=none;dashed=1;html=1;dashPattern=1 3;strokeWidth=2;" edge="1" parent="1">
                    <mxGeometry width="50" height="50" relative="1" as="geometry">
                        <mxPoint x="95" y="160" as="sourcePoint"/>
                        <mxPoint x="95" y="1000" as="targetPoint"/>
                    </mxGeometry>
                </mxCell>
                
                <mxCell id="FastAPILifeline" value="" style="endArrow=none;dashed=1;html=1;dashPattern=1 3;strokeWidth=2;" edge="1" parent="1">
                    <mxGeometry width="50" height="50" relative="1" as="geometry">
                        <mxPoint x="240" y="160" as="sourcePoint"/>
                        <mxPoint x="240" y="1000" as="targetPoint"/>
                    </mxGeometry>
                </mxCell>
                
                <mxCell id="SeleniumLifeline" value="" style="endArrow=none;dashed=1;html=1;dashPattern=1 3;strokeWidth=2;" edge="1" parent="1">
                    <mxGeometry width="50" height="50" relative="1" as="geometry">
                        <mxPoint x="400" y="160" as="sourcePoint"/>
                        <mxPoint x="400" y="1000" as="targetPoint"/>
                    </mxGeometry>
                </mxCell>
                
                <mxCell id="HespressLifeline" value="" style="endArrow=none;dashed=1;html=1;dashPattern=1 3;strokeWidth=2;" edge="1" parent="1">
                    <mxGeometry width="50" height="50" relative="1" as="geometry">
                        <mxPoint x="560" y="160" as="sourcePoint"/>
                        <mxPoint x="560" y="1000" as="targetPoint"/>
                    </mxGeometry>
                </mxCell>
                
                <mxCell id="PandasLifeline" value="" style="endArrow=none;dashed=1;html=1;dashPattern=1 3;strokeWidth=2;" edge="1" parent="1">
                    <mxGeometry width="50" height="50" relative="1" as="geometry">
                        <mxPoint x="720" y="160" as="sourcePoint"/>
                        <mxPoint x="720" y="1000" as="targetPoint"/>
                    </mxGeometry>
                </mxCell>
                
                <mxCell id="PostgreSQLLifeline" value="" style="endArrow=none;dashed=1;html=1;dashPattern=1 3;strokeWidth=2;" edge="1" parent="1">
                    <mxGeometry width="50" height="50" relative="1" as="geometry">
                        <mxPoint x="880" y="160" as="sourcePoint"/>
                        <mxPoint x="880" y="1000" as="targetPoint"/>
                    </mxGeometry>
                </mxCell>
                
                <mxCell id="RedisLifeline" value="" style="endArrow=none;dashed=1;html=1;dashPattern=1 3;strokeWidth=2;" edge="1" parent="1">
                    <mxGeometry width="50" height="50" relative="1" as="geometry">
                        <mxPoint x="1040" y="160" as="sourcePoint"/>
                        <mxPoint x="1040" y="1000" as="targetPoint"/>
                    </mxGeometry>
                </mxCell>
                
                <mxCell id="GatewayLifeline" value="" style="endArrow=none;dashed=1;html=1;dashPattern=1 3;strokeWidth=2;" edge="1" parent="1">
                    <mxGeometry width="50" height="50" relative="1" as="geometry">
                        <mxPoint x="1200" y="160" as="sourcePoint"/>
                        <mxPoint x="1200" y="1000" as="targetPoint"/>
                    </mxGeometry>
                </mxCell>
                
                <!-- Phase 1: Automatic Scraping Initiation -->
                <mxCell id="Phase1" value="Phase 1: Déclenchement Automatique du Scraping" style="text;html=1;strokeColor=none;fillColor=#e6f3ff;align=left;verticalAlign=middle;whiteSpace=wrap;rounded=1;fontStyle=1;fontSize=12;" vertex="1" parent="1">
                    <mxGeometry x="50" y="180" width="300" height="30" as="geometry"/>
                </mxCell>
                
                <mxCell id="Arrow1" value="1: Trigger Scraping Job (Cron)" style="html=1;verticalAlign=bottom;endArrow=block;rounded=0;strokeWidth=2;" edge="1" parent="1">
                    <mxGeometry width="160" relative="1" as="geometry">
                        <mxPoint x="95" y="220" as="sourcePoint"/>
                        <mxPoint x="240" y="220" as="targetPoint"/>
                    </mxGeometry>
                </mxCell>
                
                <mxCell id="Arrow2" value="2: Initialize Selenium WebDriver" style="html=1;verticalAlign=bottom;endArrow=block;rounded=0;strokeWidth=2;" edge="1" parent="1">
                    <mxGeometry width="160" relative="1" as="geometry">
                        <mxPoint x="240" y="250" as="sourcePoint"/>
                        <mxPoint x="400" y="250" as="targetPoint"/>
                    </mxGeometry>
                </mxCell>
                
                <mxCell id="Arrow3" value="3: Setup Chrome Driver Options" style="html=1;verticalAlign=bottom;endArrow=block;rounded=0;strokeWidth=2;" edge="1" parent="1">
                    <mxGeometry width="160" relative="1" as="geometry">
                        <mxPoint x="400" y="280" as="sourcePoint"/>
                        <mxPoint x="400" y="280" as="targetPoint"/>
                    </mxGeometry>
                </mxCell>
                
                <!-- Phase 2: Web Scraping Process -->
                <mxCell id="Phase2" value="Phase 2: Processus de Web Scraping" style="text;html=1;strokeColor=none;fillColor=#f8cecc;align=left;verticalAlign=middle;whiteSpace=wrap;rounded=1;fontStyle=1;fontSize=12;" vertex="1" parent="1">
                    <mxGeometry x="50" y="320" width="300" height="30" as="geometry"/>
                </mxCell>
                
                <mxCell id="Arrow4" value="4: Navigate to Hespress Articles" style="html=1;verticalAlign=bottom;endArrow=block;rounded=0;strokeWidth=2;" edge="1" parent="1">
                    <mxGeometry width="160" relative="1" as="geometry">
                        <mxPoint x="400" y="360" as="sourcePoint"/>
                        <mxPoint x="560" y="360" as="targetPoint"/>
                    </mxGeometry>
                </mxCell>
                
                <mxCell id="Arrow5" value="5: Load Article Pages" style="html=1;verticalAlign=bottom;endArrow=block;rounded=0;strokeWidth=2;dashed=1;" edge="1" parent="1">
                    <mxGeometry width="160" relative="1" as="geometry">
                        <mxPoint x="560" y="390" as="sourcePoint"/>
                        <mxPoint x="400" y="390" as="targetPoint"/>
                    </mxGeometry>
                </mxCell>
                
                <mxCell id="Arrow6" value="6: Extract Comments with CSS Selectors" style="html=1;verticalAlign=bottom;endArrow=block;rounded=0;strokeWidth=2;" edge="1" parent="1">
                    <mxGeometry width="160" relative="1" as="geometry">
                        <mxPoint x="400" y="420" as="sourcePoint"/>
                        <mxPoint x="560" y="420" as="targetPoint"/>
                    </mxGeometry>
                </mxCell>
                
                <mxCell id="Arrow7" value="7: Scroll for More Comments" style="html=1;verticalAlign=bottom;endArrow=block;rounded=0;strokeWidth=2;" edge="1" parent="1">
                    <mxGeometry width="160" relative="1" as="geometry">
                        <mxPoint x="400" y="450" as="sourcePoint"/>
                        <mxPoint x="560" y="450" as="targetPoint"/>
                    </mxGeometry>
                </mxCell>
                
                <mxCell id="Arrow8" value="8: Raw Comments Data" style="html=1;verticalAlign=bottom;endArrow=block;rounded=0;strokeWidth=2;dashed=1;" edge="1" parent="1">
                    <mxGeometry width="160" relative="1" as="geometry">
                        <mxPoint x="560" y="480" as="sourcePoint"/>
                        <mxPoint x="400" y="480" as="targetPoint"/>
                    </mxGeometry>
                </mxCell>
                
                <!-- Phase 3: Data Processing with Pandas -->
                <mxCell id="Phase3" value="Phase 3: Prétraitement et Nettoyage des Données" style="text;html=1;strokeColor=none;fillColor=#d5e8d4;align=left;verticalAlign=middle;whiteSpace=wrap;rounded=1;fontStyle=1;fontSize=12;" vertex="1" parent="1">
                    <mxGeometry x="50" y="520" width="300" height="30" as="geometry"/>
                </mxCell>
                
                <mxCell id="Arrow9" value="9: Send Raw Data to Pandas Processor" style="html=1;verticalAlign=bottom;endArrow=block;rounded=0;strokeWidth=2;" edge="1" parent="1">
                    <mxGeometry width="160" relative="1" as="geometry">
                        <mxPoint x="400" y="560" as="sourcePoint"/>
                        <mxPoint x="720" y="560" as="targetPoint"/>
                    </mxGeometry>
                </mxCell>
                
                <mxCell id="Arrow10" value="10: Clean Text (Remove HTML, Special Chars)" style="html=1;verticalAlign=bottom;endArrow=block;rounded=0;strokeWidth=2;" edge="1" parent="1">
                    <mxGeometry width="160" relative="1" as="geometry">
                        <mxPoint x="720" y="590" as="sourcePoint"/>
                        <mxPoint x="720" y="590" as="targetPoint"/>
                    </mxGeometry>
                </mxCell>
                
                <mxCell id="Arrow11" value="11: Normalize Arabic Text" style="html=1;verticalAlign=bottom;endArrow=block;rounded=0;strokeWidth=2;" edge="1" parent="1">
                    <mxGeometry width="160" relative="1" as="geometry">
                        <mxPoint x="720" y="620" as="sourcePoint"/>
                        <mxPoint x="720" y="620" as="targetPoint"/>
                    </mxGeometry>
                </mxCell>
                
                <mxCell id="Arrow12" value="12: Filter Valid Comments" style="html=1;verticalAlign=bottom;endArrow=block;rounded=0;strokeWidth=2;" edge="1" parent="1">
                    <mxGeometry width="160" relative="1" as="geometry">
                        <mxPoint x="720" y="650" as="sourcePoint"/>
                        <mxPoint x="720" y="650" as="targetPoint"/>
                    </mxGeometry>
                </mxCell>
                
                <mxCell id="Arrow13" value="13: Create DataFrame Structure" style="html=1;verticalAlign=bottom;endArrow=block;rounded=0;strokeWidth=2;" edge="1" parent="1">
                    <mxGeometry width="160" relative="1" as="geometry">
                        <mxPoint x="720" y="680" as="sourcePoint"/>
                        <mxPoint x="720" y="680" as="targetPoint"/>
                    </mxGeometry>
                </mxCell>
                
                <mxCell id="Arrow14" value="14: Processed Data" style="html=1;verticalAlign=bottom;endArrow=block;rounded=0;strokeWidth=2;dashed=1;" edge="1" parent="1">
                    <mxGeometry width="160" relative="1" as="geometry">
                        <mxPoint x="720" y="710" as="sourcePoint"/>
                        <mxPoint x="240" y="710" as="targetPoint"/>
                    </mxGeometry>
                </mxCell>
                
                <!-- Phase 4: Data Storage -->
                <mxCell id="Phase4" value="Phase 4: Stockage des Données" style="text;html=1;strokeColor=none;fillColor=#f5f5f5;align=left;verticalAlign=middle;whiteSpace=wrap;rounded=1;fontStyle=1;fontSize=12;" vertex="1" parent="1">
                    <mxGeometry x="50" y="750" width="300" height="30" as="geometry"/>
                </mxCell>
                
                <mxCell id="Arrow15" value="15: Store in PostgreSQL" style="html=1;verticalAlign=bottom;endArrow=block;rounded=0;strokeWidth=2;" edge="1" parent="1">
                    <mxGeometry width="160" relative="1" as="geometry">
                        <mxPoint x="240" y="790" as="sourcePoint"/>
                        <mxPoint x="880" y="790" as="targetPoint"/>
                    </mxGeometry>
                </mxCell>
                
                <mxCell id="Arrow16" value="16: Insert Comments Batch" style="html=1;verticalAlign=bottom;endArrow=block;rounded=0;strokeWidth=2;" edge="1" parent="1">
                    <mxGeometry width="160" relative="1" as="geometry">
                        <mxPoint x="880" y="820" as="sourcePoint"/>
                        <mxPoint x="880" y="820" as="targetPoint"/>
                    </mxGeometry>
                </mxCell>
                
                <mxCell id="Arrow17" value="17: Cache Recent Data" style="html=1;verticalAlign=bottom;endArrow=block;rounded=0;strokeWidth=2;" edge="1" parent="1">
                    <mxGeometry width="160" relative="1" as="geometry">
                        <mxPoint x="240" y="850" as="sourcePoint"/>
                        <mxPoint x="1040" y="850" as="targetPoint"/>
                    </mxGeometry>
                </mxCell>
                
                <mxCell id="Arrow18" value="18: Set TTL for Cache" style="html=1;verticalAlign=bottom;endArrow=block;rounded=0;strokeWidth=2;" edge="1" parent="1">
                    <mxGeometry width="160" relative="1" as="geometry">
                        <mxPoint x="1040" y="880" as="sourcePoint"/>
                        <mxPoint x="1040" y="880" as="targetPoint"/>
                    </mxGeometry>
                </mxCell>
                
                <!-- Phase 5: API Data Retrieval -->
                <mxCell id="Phase5" value="Phase 5: API de Récupération des Données" style="text;html=1;strokeColor=none;fillColor=#e6f3ff;align=left;verticalAlign=middle;whiteSpace=wrap;rounded=1;fontStyle=1;fontSize=12;" vertex="1" parent="1">
                    <mxGeometry x="50" y="920" width="300" height="30" as="geometry"/>
                </mxCell>
                
                <mxCell id="Arrow19" value="19: Register Data Endpoints" style="html=1;verticalAlign=bottom;endArrow=block;rounded=0;strokeWidth=2;" edge="1" parent="1">
                    <mxGeometry width="160" relative="1" as="geometry">
                        <mxPoint x="240" y="960" as="sourcePoint"/>
                        <mxPoint x="1200" y="960" as="targetPoint"/>
                    </mxGeometry>
                </mxCell>
                
                <mxCell id="Arrow20" value="20: API Ready for Frontend" style="html=1;verticalAlign=bottom;endArrow=block;rounded=0;strokeWidth=2;dashed=1;" edge="1" parent="1">
                    <mxGeometry width="160" relative="1" as="geometry">
                        <mxPoint x="1200" y="990" as="sourcePoint"/>
                        <mxPoint x="240" y="990" as="targetPoint"/>
                    </mxGeometry>
                </mxCell>
                
            </root>
        </mxGraphModel>
    </diagram>
</mxfile>
